<?xml version="1.0" standalone="no"?>
<!DOCTYPE svg PUBLIC "-//W3C//DTD SVG 20010904//EN"
 "http://www.w3.org/TR/2001/REC-SVG-20010904/DTD/svg10.dtd">
<svg version="1.0" xmlns="http://www.w3.org/2000/svg"
 width="2677.000000pt" height="601.000000pt" viewBox="0 0 2677.000000 601.000000"
 preserveAspectRatio="xMidYMid meet">

<g transform="translate(0.000000,601.000000) scale(0.100000,-0.100000)"
fill="#000000" stroke="none">
<path d="M1677 4640 c-387 -49 -717 -214 -984 -493 -408 -427 -545 -1049 -357
-1616 157 -472 548 -863 1016 -1015 184 -60 266 -71 508 -71 252 0 335 13 533
81 683 238 1126 918 1068 1638 -19 224 -67 400 -167 601 -76 153 -169 280
-304 415 -229 230 -506 377 -827 440 -122 24 -374 34 -486 20z m411 -116 c359
-64 690 -316 857 -651 174 -350 176 -771 4 -1115 -88 -176 -245 -359 -402
-466 -561 -385 -1313 -230 -1686 348 -307 475 -248 1109 141 1526 279 298 682
431 1086 358z"/>
<path d="M1630 4470 c-677 -145 -1049 -838 -782 -1457 53 -123 121 -222 222
-324 335 -338 841 -423 1275 -215 315 151 522 416 597 761 7 35 12 120 12 205
-1 122 -5 160 -27 242 -48 183 -134 334 -266 471 -167 173 -360 277 -594 322
-110 21 -328 19 -437 -5z m425 -105 c94 -26 223 -91 304 -153 135 -103 235
-252 283 -418 32 -112 32 -286 0 -398 -78 -274 -294 -486 -579 -568 -113 -33
-343 -33 -456 0 -284 82 -501 295 -579 569 -31 110 -31 286 0 396 87 306 354
539 677 591 61 9 290 -3 350 -19z"/>
<path d="M1741 4329 c-191 -32 -372 -172 -465 -361 -54 -109 -76 -199 -76
-321 0 -311 191 -579 475 -667 89 -27 232 -30 324 -5 228 59 405 239 472 480
29 101 31 268 6 365 -91 348 -403 564 -736 509z m241 -88 c70 -34 130 -92 169
-163 32 -59 34 -69 34 -158 0 -87 -3 -101 -33 -162 -38 -77 -92 -130 -171
-167 -47 -22 -70 -26 -146 -26 -77 0 -98 4 -147 27 -73 34 -142 103 -176 176
-23 49 -27 70 -27 152 0 80 4 103 25 145 35 72 123 157 190 183 75 30 212 26
282 -7z"/>
<path d="M19289 4253 c-45 -23 -59 -37 -81 -82 -47 -91 -30 -182 44 -247 129
-114 328 -21 328 153 0 87 -45 155 -122 188 -55 22 -107 19 -169 -12z"/>
<path d="M4060 3096 l0 -976 363 0 c199 0 401 5 447 10 382 47 671 252 789
559 54 141 66 218 65 411 -1 155 -4 186 -27 272 -94 355 -343 585 -723 669
-91 20 -133 22 -506 26 l-408 5 0 -976z m865 690 c179 -49 316 -156 393 -304
123 -236 117 -598 -14 -813 -49 -81 -153 -175 -238 -215 -129 -61 -166 -67
-438 -72 l-248 -4 0 717 0 717 243 -4 c185 -4 256 -9 302 -22z"/>
<path d="M11430 3095 l0 -975 490 0 490 0 0 125 0 125 -332 2 -333 3 -3 848
-2 847 -155 0 -155 0 0 -975z"/>
<path d="M24470 3104 c-190 -531 -346 -969 -348 -975 -2 -5 63 -9 161 -9 l165
0 38 108 c21 59 52 148 70 197 l32 90 410 3 c383 2 410 1 417 -15 4 -10 33
-92 65 -183 32 -91 61 -173 65 -182 6 -16 24 -18 172 -18 128 0 164 3 161 13
-3 6 -160 445 -349 975 l-344 962 -185 0 -185 0 -345 -966z m692 129 l156
-448 -316 -3 c-173 -1 -317 -1 -318 1 -5 5 310 897 316 897 3 0 76 -201 162
-447z"/>
<path d="M26190 3095 l0 -975 160 0 160 0 0 975 0 975 -160 0 -160 0 0 -975z"/>
<path d="M6580 3679 c-244 -36 -438 -173 -544 -385 -66 -131 -81 -206 -81
-399 0 -147 3 -181 23 -249 47 -163 150 -318 266 -401 145 -103 290 -147 481
-147 219 1 389 66 525 201 79 78 110 123 154 224 l26 57 -174 0 -173 0 -11
-25 c-19 -41 -103 -125 -147 -147 -129 -66 -312 -62 -434 9 -108 63 -188 179
-209 301 l-9 52 593 0 592 0 7 76 c22 233 -51 465 -194 616 -165 176 -423 257
-691 217z m256 -273 c162 -43 275 -168 299 -329 l7 -47 -432 0 -433 0 7 43
c22 142 150 289 289 332 56 18 199 18 263 1z"/>
<path d="M8294 3675 c-97 -17 -136 -31 -229 -78 -99 -52 -200 -145 -260 -241
-86 -139 -134 -344 -121 -522 24 -342 211 -599 506 -698 256 -85 557 -36 758
124 78 63 178 206 206 298 l7 22 -169 0 -169 0 -30 -48 c-16 -26 -50 -65 -76
-86 -148 -121 -412 -111 -564 21 -48 42 -100 127 -123 200 -36 116 -105 103
570 103 l590 0 6 26 c11 44 -3 295 -20 359 -23 85 -87 210 -143 280 -158 195
-456 292 -739 240z m297 -274 c122 -39 219 -130 260 -246 10 -30 19 -70 19
-90 l0 -35 -430 0 -430 0 6 28 c40 180 132 290 289 344 70 24 205 24 286 -1z"/>
<path d="M10240 3676 c-140 -30 -260 -94 -351 -187 l-49 -50 0 110 0 111 -160
0 -160 0 0 -1140 0 -1140 160 0 160 0 0 481 0 481 63 -58 c35 -33 89 -74 119
-92 124 -74 295 -109 438 -91 179 22 288 76 415 203 77 77 98 105 137 186 80
165 108 326 88 506 -24 226 -111 401 -265 532 -58 50 -185 116 -265 138 -79
21 -251 26 -330 10z m195 -278 c68 -17 152 -66 203 -117 100 -100 144 -216
144 -381 -1 -120 -17 -194 -63 -281 -121 -227 -395 -313 -624 -197 -56 29
-150 122 -185 184 -42 72 -70 190 -70 288 0 185 70 335 200 430 114 84 254
110 395 74z"/>
<path d="M13184 3676 c-169 -32 -279 -90 -394 -205 -150 -150 -214 -320 -214
-571 -1 -264 73 -453 239 -608 139 -130 308 -193 520 -194 314 -1 552 135 676
388 21 44 39 84 39 87 0 4 -76 7 -168 7 l-168 0 -35 -52 c-41 -62 -116 -121
-179 -144 -65 -22 -178 -29 -252 -14 -167 32 -290 148 -334 315 -26 95 -91 85
576 85 l589 0 7 36 c13 67 -3 284 -26 364 -72 249 -258 429 -510 494 -89 23
-276 29 -366 12z m308 -280 c86 -31 156 -82 201 -148 37 -55 67 -140 67 -190
l0 -28 -430 0 c-236 0 -430 4 -430 8 0 21 35 122 56 164 48 94 133 167 233
199 85 27 218 25 303 -5z"/>
<path d="M14895 3676 c-298 -59 -506 -275 -572 -594 -22 -108 -14 -338 17
-442 59 -205 201 -385 370 -468 111 -54 200 -74 326 -74 182 0 340 62 466 181
l68 63 0 -111 0 -111 160 0 160 0 0 770 0 770 -160 0 -160 0 0 -106 0 -106
-70 65 c-76 70 -177 126 -275 152 -85 22 -245 28 -330 11z m330 -278 c70 -17
154 -69 209 -129 93 -101 136 -218 136 -374 0 -110 -20 -198 -63 -279 -150
-285 -533 -331 -746 -90 -140 158 -172 426 -75 630 39 83 123 167 208 209 105
52 214 63 331 33z"/>
<path d="M16980 3679 c-90 -15 -209 -79 -274 -149 -31 -34 -56 -65 -56 -71 0
-5 -4 -9 -10 -9 -6 0 -10 42 -10 105 l0 105 -155 0 -155 0 0 -770 0 -770 155
0 155 0 0 408 c0 224 5 446 10 495 19 163 67 245 176 298 59 29 77 33 175 37
l109 5 0 163 0 164 -32 -1 c-18 -1 -58 -5 -88 -10z"/>
<path d="M18045 3676 c-121 -28 -210 -74 -291 -148 l-44 -41 0 87 0 86 -155 0
-155 0 0 -770 0 -770 154 0 155 0 3 488 c3 479 4 488 26 551 62 171 180 253
367 253 188 0 311 -84 367 -250 22 -65 22 -81 26 -554 l3 -488 155 0 154 0 0
493 c0 295 -4 518 -11 557 -25 154 -103 301 -203 381 -58 47 -151 94 -228 115
-78 21 -251 27 -323 10z"/>
<path d="M20605 3674 c-97 -21 -203 -75 -269 -135 l-56 -51 0 86 0 86 -155 0
-155 0 0 -770 0 -770 155 0 155 0 0 463 c0 492 5 548 50 637 32 62 95 126 154
155 159 77 389 37 486 -86 21 -27 49 -75 62 -106 23 -58 23 -61 26 -560 l3
-503 160 0 160 0 -3 523 c-4 498 -5 526 -26 600 -59 215 -210 368 -417 422
-88 24 -245 28 -330 9z"/>
<path d="M22269 3676 c-151 -32 -270 -98 -374 -208 -186 -198 -254 -491 -184
-795 36 -157 110 -286 228 -395 111 -103 236 -159 393 -177 210 -24 408 42
555 185 l63 62 0 -167 c0 -111 -5 -187 -15 -229 -49 -207 -200 -322 -425 -322
-186 0 -355 90 -419 223 l-23 47 -154 0 c-106 0 -154 -3 -154 -11 0 -32 36
-141 63 -194 42 -81 154 -190 242 -237 39 -20 111 -49 160 -64 84 -26 102 -28
275 -28 146 -1 199 3 250 17 279 75 468 291 510 582 6 42 10 397 10 883 l0
812 -160 0 -160 0 0 -107 0 -107 -52 50 c-87 84 -182 138 -293 168 -84 23
-254 29 -336 12z m359 -287 c245 -84 376 -367 302 -653 -56 -221 -235 -366
-450 -366 -129 0 -241 50 -333 149 -94 103 -137 219 -137 376 0 170 47 291
151 390 127 121 304 161 467 104z"/>
<path d="M19220 2890 l0 -770 160 0 160 0 0 770 0 770 -160 0 -160 0 0 -770z"/>
<path d="M23627 2496 c-121 -33 -183 -175 -124 -287 77 -146 291 -142 358 6
43 94 11 207 -72 257 -56 33 -101 40 -162 24z"/>
</g>
</svg>
